<svg xmlns="http://www.w3.org/2000/svg" viewBox="0 0 500 500" width="100%" height="100%">
  <path d="M 28,32 
           C 62,27 95,35 130,29 C 168,34 205,26 242,32 C 278,28 315,33 352,28 C 390,32 428,27 465,33 C 472,32 473,38 471,45
           C 475,80 468,115 472,150 C 469,188 473,225 470,262 C 472,298 468,335 471,372 C 468,410 473,448 469,482 C 462,485 450,480 440,483
           C 405,479 370,484 335,480 C 298,483 260,478 222,482 C 185,478 148,483 110,479 C 72,482 35,477 15,481 C 12,472 17,458 14,445
           C 18,410 12,375 16,340 C 13,302 17,265 14,228 C 17,192 13,155 16,118 C 12,80 17,42 15,25 Z" fill="#000000" />
</svg>
